<svg width="1200" height="720" viewBox="0 0 1200 720" fill="none" xmlns="http://www.w3.org/2000/svg">
  <rect width="1200" height="720" rx="36" fill="#F3E6D7"/>
  <circle cx="952" cy="154" r="74" fill="#E39A61"/>
  <path d="M0 540C94 478 171 453 280 465C384 476 443 550 551 550C660 550 737 449 844 425C978 394 1054 442 1200 358V720H0V540Z" fill="#6E9F9A"/>
  <path d="M0 581C110 530 196 510 310 526C434 544 523 624 639 624C747 624 835 546 936 528C1033 510 1110 536 1200 482V720H0V581Z" fill="#2D5B66"/>
  <path d="M279 253L413 130L510 232L645 90L821 253H279Z" fill="#FFF8EF"/>
  <text x="96" y="118" fill="#A24E2D" font-family="Georgia, serif" font-size="52" font-weight="700">
    ND Travels
  </text>
  <text x="96" y="176" fill="#4E5D6C" font-family="Arial, sans-serif" font-size="28">
    Add an image URL to replace this travel placeholder.
  </text>
</svg>
