<svg width="1600" height="1200" viewBox="0 0 1600 1200" fill="none" xmlns="http://www.w3.org/2000/svg">
  <rect width="1600" height="1200" fill="#F5E8D6"/>
  <rect width="1600" height="720" fill="url(#sky)"/>
  <circle cx="1250" cy="220" r="88" fill="#FFD28A" fill-opacity="0.95"/>
  <path d="M0 671C123 618 224 598 352 604C510 611 624 694 775 694C972 694 1087 522 1272 522C1402 522 1490 560 1600 629V1200H0V671Z" fill="#A6D3C8"/>
  <path d="M0 731C104 705 185 690 312 697C480 706 622 812 784 812C958 812 1114 660 1297 660C1410 660 1493 692 1600 748V1200H0V731Z" fill="#66A8A5"/>
  <path d="M0 850C145 792 277 762 436 780C605 799 697 915 861 922C1041 931 1152 834 1337 834C1442 834 1517 852 1600 891V1200H0V850Z" fill="#2A7181"/>
  <path d="M0 1200V856C93 837 192 843 281 883C372 925 444 1016 554 1013C666 1011 721 884 814 843C919 796 1018 859 1086 935C1156 1012 1225 1070 1343 1045C1450 1023 1519 940 1600 884V1200H0Z" fill="#0F4154"/>
  <path d="M50 1200C193 1085 286 945 357 785C392 707 409 641 433 559C457 474 501 423 579 430C653 437 699 519 735 590C767 653 813 738 886 742C958 747 1000 662 1043 600C1080 547 1126 493 1194 499C1264 505 1300 560 1325 623C1382 766 1450 930 1552 1040V1200H50Z" fill="#70513F"/>
  <path d="M0 1200C156 1154 260 1090 352 952C434 828 474 675 583 675C670 675 707 751 758 825C814 905 880 982 984 982C1078 982 1140 917 1195 845C1256 765 1309 698 1406 698C1485 698 1547 752 1600 821V1200H0Z" fill="#446B5B"/>
  <path d="M1106 629C1158 607 1192 596 1247 594C1308 592 1361 633 1421 633C1482 633 1527 601 1600 571V1200H1050C1080 1121 1088 1041 1088 949C1088 810 1097 728 1106 629Z" fill="#D6B08B"/>
  <path d="M1050 1200C1082 1136 1139 1098 1225 1079C1308 1061 1406 1064 1492 1029C1544 1008 1576 982 1600 958V1200H1050Z" fill="#C48C5D"/>
  <path d="M369 1006C437 953 492 949 554 992C607 1028 667 1130 784 1130C899 1130 987 995 1091 995C1180 995 1250 1069 1316 1200H280C300 1125 326 1060 369 1006Z" fill="#EBF3E9" fill-opacity="0.6"/>
  <defs>
    <linearGradient id="sky" x1="800" y1="0" x2="800" y2="720" gradientUnits="userSpaceOnUse">
      <stop stop-color="#F8D7A0"/>
      <stop offset="0.5" stop-color="#F3C6A4"/>
      <stop offset="1" stop-color="#E7D8CA"/>
    </linearGradient>
  </defs>
</svg>
