<svg width="1600" height="1200" viewBox="0 0 1600 1200" fill="none" xmlns="http://www.w3.org/2000/svg">
  <rect width="1600" height="1200" fill="#EDE8DF"/>
  <rect width="1600" height="760" fill="url(#sky)"/>
  <circle cx="1218" cy="218" r="80" fill="#FFE4AB"/>
  <path d="M0 816C155 747 283 708 440 719C635 732 780 847 973 847C1172 847 1317 732 1600 645V1200H0V816Z" fill="#C6D8CF"/>
  <path d="M0 1200V904L199 733L350 918L558 566L739 853L944 392L1181 868L1346 612L1600 1200H0Z" fill="#264D5A"/>
  <path d="M160 1200L350 918L408 992L558 566L613 651L739 853L804 712L944 392L1010 518L1181 868L1240 754L1346 612L1600 1200H160Z" fill="#3D6B74"/>
  <path d="M0 1200L199 733L278 829L350 918L558 566L651 690L739 853L944 392L1036 563L1181 868L1346 612L1422 787L1600 1200H0Z" fill="#698F92"/>
  <path d="M943 392L875 544H1010L943 392Z" fill="#F4F1EE"/>
  <path d="M558 566L505 657H612L558 566Z" fill="#F4F1EE"/>
  <path d="M1346 612L1294 704H1400L1346 612Z" fill="#E8E4DD"/>
  <path d="M0 1200C168 1118 336 1049 551 1057C784 1066 918 1166 1118 1166C1308 1166 1440 1094 1600 1008V1200H0Z" fill="#D5A36B"/>
  <path d="M0 1200C211 1146 366 1135 520 1155C690 1177 811 1200 977 1200H0Z" fill="#B56F3A"/>
  <path d="M541 1200C599 1114 674 1061 767 1061C866 1061 950 1119 1038 1200H541Z" fill="#EFE6D7"/>
  <path d="M642 1200C673 1147 717 1116 766 1116C816 1116 860 1147 892 1200H642Z" fill="#F7F2EA"/>
  <path d="M680 1200C746 1129 807 1088 860 1088C912 1088 960 1125 1001 1200H680Z" fill="#F1A466"/>
  <defs>
    <linearGradient id="sky" x1="800" y1="0" x2="800" y2="760" gradientUnits="userSpaceOnUse">
      <stop stop-color="#B7D3D7"/>
      <stop offset="0.58" stop-color="#DAD8CC"/>
      <stop offset="1" stop-color="#F0E0C7"/>
    </linearGradient>
  </defs>
</svg>
