<svg width="1600" height="1200" viewBox="0 0 1600 1200" fill="none" xmlns="http://www.w3.org/2000/svg">
  <rect width="1600" height="1200" fill="#F4ECDD"/>
  <rect width="1600" height="740" fill="url(#sky)"/>
  <circle cx="1260" cy="205" r="72" fill="#FFD185"/>
  <path d="M0 822C119 787 222 770 351 777C524 786 626 853 811 853C992 853 1103 785 1267 785C1386 785 1484 810 1600 867V1200H0V822Z" fill="#D4D7C8"/>
  <path d="M0 1200V851H108V571H219V760H306V471H440V697H537V392H680V689H751V520H873V714H957V349H1098V760H1187V449H1310V666H1410V584H1510V1200H0Z" fill="#20404C"/>
  <path d="M108 1200V571H219V1200H108Z" fill="#395E67"/>
  <path d="M306 1200V471H440V1200H306Z" fill="#56757C"/>
  <path d="M537 1200V392H680V1200H537Z" fill="#45606A"/>
  <path d="M751 1200V520H873V1200H751Z" fill="#66848A"/>
  <path d="M957 1200V349H1098V1200H957Z" fill="#3E5660"/>
  <path d="M1187 1200V449H1310V1200H1187Z" fill="#637A7F"/>
  <path d="M1410 1200V584H1510V1200H1410Z" fill="#48636D"/>
  <path d="M0 1200C138 1100 255 1069 406 1075C587 1083 703 1175 865 1175C1022 1175 1130 1107 1277 1107C1400 1107 1492 1138 1600 1200H0Z" fill="#B2683D"/>
  <path d="M0 1200C174 1145 338 1121 525 1139C687 1154 822 1200 975 1200H0Z" fill="#7B4227"/>
  <path d="M112 665H146V699H112V665Z" fill="#F5C78D"/>
  <path d="M163 665H197V699H163V665Z" fill="#F5C78D"/>
  <path d="M163 717H197V751H163V717Z" fill="#F5C78D"/>
  <path d="M334 560H372V598H334V560Z" fill="#F6D6A8"/>
  <path d="M388 560H426V598H388V560Z" fill="#F6D6A8"/>
  <path d="M334 619H372V657H334V619Z" fill="#F6D6A8"/>
  <path d="M567 480H607V520H567V480Z" fill="#F4D2A0"/>
  <path d="M623 480H663V520H623V480Z" fill="#F4D2A0"/>
  <path d="M783 607H818V642H783V607Z" fill="#F7DEC0"/>
  <path d="M835 607H870V642H835V607Z" fill="#F7DEC0"/>
  <path d="M988 438H1028V478H988V438Z" fill="#F8D9A7"/>
  <path d="M1044 438H1084V478H1044V438Z" fill="#F8D9A7"/>
  <path d="M1217 553H1252V588H1217V553Z" fill="#F7D29A"/>
  <path d="M1268 553H1303V588H1268V553Z" fill="#F7D29A"/>
  <defs>
    <linearGradient id="sky" x1="800" y1="0" x2="800" y2="740" gradientUnits="userSpaceOnUse">
      <stop stop-color="#F7C28C"/>
      <stop offset="0.52" stop-color="#EAA98D"/>
      <stop offset="1" stop-color="#D6D4CF"/>
    </linearGradient>
  </defs>
</svg>
